<svg width="40" height="40" viewBox="0 0 40 40" fill="none" xmlns="http://www.w3.org/2000/svg">
<path d="M35.0004 16.6666H29.4888L22.4104 2.60494C21.9802 1.81643 21.3454 1.15839 20.5729 0.699998C19.8004 0.241601 18.9187 -0.000223115 18.0204 -5.68547e-05H17.7171C17.0369 -0.000996215 16.3658 0.156383 15.7569 0.459627C15.148 0.762871 14.6181 1.20366 14.209 1.74711C13.7999 2.29056 13.5229 2.92176 13.3999 3.59076C13.277 4.25976 13.3114 4.9482 13.5004 5.60161L16.7138 16.6666H12.7404C12.0833 16.6683 11.4324 16.5397 10.8254 16.2883C10.2183 16.0368 9.66715 15.6675 9.20376 15.2016L6.84209 12.8333C6.23846 12.2303 5.45842 11.8352 4.61511 11.7055C3.7718 11.5757 2.90908 11.718 2.15209 12.1116C1.68369 12.3533 1.26966 12.6882 0.935462 13.0958C0.601266 13.5033 0.353962 13.9749 0.208755 14.4816C0.0481577 15.0252 -0.000965297 15.5957 0.0643337 16.1587C0.129633 16.7218 0.308008 17.2659 0.588755 17.7583L3.27876 22.4666C4.00902 23.7409 5.06237 24.8002 6.3326 25.5376C7.60282 26.275 9.04502 26.6644 10.5138 26.6666H16.6988L13.9188 34.0783C13.6699 34.7412 13.5854 35.4546 13.6725 36.1573C13.7596 36.86 14.0157 37.5311 14.4189 38.1132C14.8221 38.6953 15.3603 39.171 15.9876 39.4996C16.6148 39.8282 17.3123 39.9999 18.0204 39.9999C18.9032 40.0046 19.7711 39.7733 20.5344 39.33C21.2978 38.8866 21.9287 38.2473 22.3621 37.4783L29.1071 26.6666H35.0004C36.3265 26.6666 37.5983 26.1398 38.536 25.2021C39.4736 24.2645 40.0004 22.9927 40.0004 21.6666C40.0004 20.3405 39.4736 19.0688 38.536 18.1311C37.5983 17.1934 36.3265 16.6666 35.0004 16.6666ZM16.7088 4.67494C16.6635 4.51858 16.6553 4.35384 16.6847 4.19374C16.7141 4.03364 16.7803 3.88256 16.8781 3.75244C16.9759 3.62232 17.1026 3.51672 17.2482 3.44397C17.3938 3.37123 17.5543 3.33333 17.7171 3.33328H18.0204C18.311 3.33078 18.5971 3.40515 18.8497 3.54887C19.1023 3.69258 19.3124 3.90052 19.4588 4.15161L25.7588 16.6666H20.1838L16.7088 4.67494ZM35.0004 23.3333H28.1821C27.8993 23.3335 27.6211 23.4056 27.3739 23.5429C27.1266 23.6803 26.9184 23.8783 26.7688 24.1183L19.4838 35.7983C19.3403 36.0611 19.1287 36.2805 18.8713 36.4333C18.6138 36.5861 18.3198 36.6667 18.0204 36.6666C17.851 36.6668 17.6841 36.6258 17.534 36.5472C17.3839 36.4686 17.2551 36.3547 17.1587 36.2154C17.0623 36.0761 17.0012 35.9154 16.9806 35.7472C16.96 35.5791 16.9805 35.4084 17.0404 35.2499L20.6638 25.5833C20.758 25.3311 20.7897 25.0599 20.7563 24.7928C20.7228 24.5258 20.6252 24.2708 20.4717 24.0496C20.3182 23.8285 20.1135 23.6478 19.875 23.5231C19.6364 23.3983 19.3713 23.3332 19.1021 23.3333H10.5138C9.63357 23.3318 8.76936 23.098 8.00847 22.6556C7.24759 22.2131 6.617 21.5776 6.18042 20.8133L3.48209 16.1033C3.42562 16.0028 3.38962 15.8922 3.37618 15.7778C3.36273 15.6634 3.3721 15.5474 3.40376 15.4366C3.42045 15.3628 3.45254 15.2933 3.49792 15.2327C3.54329 15.1721 3.60094 15.1218 3.66709 15.0849C3.76982 15.0304 3.88412 15.0013 4.00042 14.9999C4.1793 15.0012 4.35074 15.0717 4.47875 15.1966L6.84042 17.5583C7.61351 18.3352 8.53306 18.9511 9.5458 19.3702C10.5586 19.7893 11.6444 20.0034 12.7404 19.9999H35.0004C35.4425 19.9999 35.8664 20.1755 36.1789 20.4881C36.4915 20.8007 36.6671 21.2246 36.6671 21.6666C36.6671 22.1086 36.4915 22.5326 36.1789 22.8451C35.8664 23.1577 35.4425 23.3333 35.0004 23.3333Z" fill="white"/>
</svg>
