<svg width="40" height="38" viewBox="0 0 40 38" fill="none" xmlns="http://www.w3.org/2000/svg">
<path d="M37 2.60566C36.0631 1.8222 34.9651 1.25464 33.7841 0.943264C32.6031 0.631888 31.3681 0.584338 30.1667 0.803989L23.7967 1.96066C22.326 2.23073 20.9888 2.98737 20 4.10899C19.0086 2.98543 17.6676 2.22862 16.1933 1.96066L9.83333 0.803989C8.63193 0.584145 7.39689 0.631073 6.21563 0.941449C5.03437 1.25182 3.93578 1.81806 2.99761 2.60008C2.05944 3.3821 1.30464 4.36077 0.786637 5.46683C0.26863 6.5729 8.13541e-05 7.7793 0 9.00066L0 26.989C9.57598e-05 28.9403 0.684961 30.8297 1.93522 32.3279C3.18548 33.8261 4.92185 34.838 6.84167 35.1873L17.3183 37.0923C19.0916 37.4145 20.9084 37.4145 22.6817 37.0923L33.1667 35.1873C35.085 34.8363 36.8194 33.8236 38.068 32.3256C39.3166 30.8276 40.0003 28.9391 40 26.989V9.00066C40.0008 7.77973 39.7323 6.57365 39.2138 5.46831C38.6952 4.36297 37.9394 3.38555 37 2.60566ZM18.3333 33.8807C18.1933 33.8607 18.0533 33.8373 17.9133 33.8123L7.43833 31.909C6.28627 31.6994 5.24432 31.0921 4.49415 30.193C3.74397 29.2939 3.33316 28.16 3.33333 26.989V9.00066C3.33333 7.67457 3.86012 6.4028 4.7978 5.46512C5.73548 4.52744 7.00725 4.00066 8.33333 4.00066C8.63515 4.00138 8.93632 4.0287 9.23333 4.08232L15.6 5.24899C16.366 5.38916 17.0588 5.79311 17.5581 6.39073C18.0574 6.98835 18.3316 7.74192 18.3333 8.52066V33.8807ZM36.6667 26.989C36.6668 28.16 36.256 29.2939 35.5059 30.193C34.7557 31.0921 33.7137 31.6994 32.5617 31.909L22.0867 33.8123C21.9467 33.8373 21.8067 33.8607 21.6667 33.8807V8.52066C21.6665 7.74001 21.9404 6.98408 22.4405 6.38467C22.9407 5.78526 23.6353 5.38039 24.4033 5.24066L30.7717 4.07399C31.4929 3.94277 32.2341 3.97174 32.9429 4.15884C33.6516 4.34594 34.3106 4.68659 34.873 5.15666C35.4355 5.62674 35.8877 6.21475 36.1977 6.87903C36.5077 7.54331 36.6678 8.26762 36.6667 9.00066V26.989Z" fill="white"/>
</svg>
