<svg width="40" height="40" viewBox="0 0 40 40" fill="none" xmlns="http://www.w3.org/2000/svg">
<g clip-path="url(#clip0_0:46)">
<path d="M37.4994 6.6258H32.3561C32.0265 6.62587 31.7043 6.72366 31.4303 6.9068C31.1563 7.08994 30.9427 7.35021 30.8166 7.65471C30.6905 7.95921 30.6575 8.29427 30.7218 8.61752C30.786 8.94077 30.9447 9.23772 31.1777 9.4708L32.9877 11.2808L27.0111 17.2558C26.6935 17.5593 26.2712 17.7287 25.8319 17.7287C25.3926 17.7287 24.9703 17.5593 24.6527 17.2558L24.3694 16.9708C23.4171 16.0609 22.1507 15.5532 20.8336 15.5532C19.5165 15.5532 18.25 16.0609 17.2977 16.9708L8.79773 25.4708C8.48455 25.7849 8.30896 26.2105 8.30959 26.654C8.31021 27.0975 8.487 27.5226 8.80106 27.8358C9.11512 28.149 9.54073 28.3246 9.98425 28.3239C10.4278 28.3233 10.8529 28.1465 11.1661 27.8325L19.6661 19.3325C19.9834 19.0286 20.4058 18.859 20.8452 18.859C21.2846 18.859 21.707 19.0286 22.0244 19.3325L22.3077 19.6175C23.2604 20.5266 24.5267 21.0338 25.8436 21.0338C27.1604 21.0338 28.4267 20.5266 29.3794 19.6175L35.3561 13.6408L37.1661 15.4508C37.3999 15.68 37.6962 15.8353 38.0177 15.8972C38.3393 15.9591 38.672 15.9249 38.9743 15.7988C39.2765 15.6728 39.535 15.4605 39.7173 15.1884C39.8996 14.9164 39.9977 14.5966 39.9994 14.2691V9.1258C39.9994 8.46276 39.736 7.82688 39.2672 7.35803C38.7983 6.88919 38.1624 6.6258 37.4994 6.6258Z" fill="white"/>
<path d="M38.3333 36.6267H8.33333C7.00725 36.6267 5.73548 36.0999 4.7978 35.1622C3.86012 34.2245 3.33333 32.9527 3.33333 31.6267V1.66667C3.33333 1.22464 3.15774 0.800716 2.84518 0.488155C2.53262 0.175595 2.10869 0 1.66667 0C1.22464 0 0.800716 0.175595 0.488155 0.488155C0.175595 0.800716 0 1.22464 0 1.66667L0 31.6267C0.00264643 33.836 0.88147 35.9541 2.4437 37.5163C4.00593 39.0785 6.12401 39.9574 8.33333 39.96H38.3333C38.7754 39.96 39.1993 39.7844 39.5118 39.4718C39.8244 39.1593 40 38.7354 40 38.2933C40 37.8513 39.8244 37.4274 39.5118 37.1148C39.1993 36.8023 38.7754 36.6267 38.3333 36.6267Z" fill="white"/>
</g>
<defs>
<clipPath id="clip0_0:46">
<rect width="40" height="40" fill="white"/>
</clipPath>
</defs>
</svg>
