<svg width="40" height="38" viewBox="0 0 40 38" fill="none" xmlns="http://www.w3.org/2000/svg">
<path d="M31.6667 0.666046H8.33333C6.124 0.668693 4.00592 1.54752 2.44369 3.10975C0.881462 4.67198 0.0026388 6.79005 -7.62939e-06 8.99938L-7.62939e-06 28.9994C0.0026388 31.2087 0.881462 33.3268 2.44369 34.889C4.00592 36.4512 6.124 37.3301 8.33333 37.3327H31.6667C33.876 37.3301 35.9941 36.4512 37.5563 34.889C39.1185 33.3268 39.9973 31.2087 40 28.9994V8.99938C39.9973 6.79005 39.1185 4.67198 37.5563 3.10975C35.9941 1.54752 33.876 0.668693 31.6667 0.666046ZM8.33333 3.99938H31.6667C32.6646 4.00134 33.6392 4.3019 34.4649 4.86239C35.2906 5.42287 35.9297 6.21762 36.3 7.14438L23.5367 19.9094C22.5974 20.8449 21.3257 21.3702 20 21.3702C18.6743 21.3702 17.4026 20.8449 16.4633 19.9094L3.69999 7.14438C4.07024 6.21762 4.70935 5.42287 5.53507 4.86239C6.36079 4.3019 7.33535 4.00134 8.33333 3.99938ZM31.6667 33.9994H8.33333C7.00724 33.9994 5.73547 33.4726 4.79779 32.5349C3.86011 31.5972 3.33333 30.3255 3.33333 28.9994V11.4994L14.1067 22.266C15.671 23.8265 17.7904 24.7028 20 24.7028C22.2096 24.7028 24.3289 23.8265 25.8933 22.266L36.6667 11.4994V28.9994C36.6667 30.3255 36.1399 31.5972 35.2022 32.5349C34.2645 33.4726 32.9927 33.9994 31.6667 33.9994Z" fill="white"/>
</svg>
