<svg width="40" height="40" viewBox="0 0 40 40" fill="none" xmlns="http://www.w3.org/2000/svg">
<path d="M24.1665 21.6661C23.672 21.6661 23.1887 21.5195 22.7776 21.2448C22.3664 20.9701 22.046 20.5796 21.8568 20.1228C21.6676 19.666 21.6181 19.1633 21.7145 18.6784C21.811 18.1934 22.0491 17.748 22.3987 17.3983C22.7483 17.0487 23.1938 16.8106 23.6788 16.7141C24.1637 16.6177 24.6664 16.6672 25.1232 16.8564C25.58 17.0456 25.9705 17.3661 26.2452 17.7772C26.5199 18.1883 26.6665 18.6717 26.6665 19.1661C26.6665 19.8292 26.4031 20.465 25.9342 20.9339C25.4654 21.4027 24.8295 21.6661 24.1665 21.6661ZM39.8748 30.2394C40.0828 31.4365 40.0266 32.6645 39.71 33.8375C39.3934 35.0104 38.8242 36.1 38.0422 37.0299C37.2602 37.9597 36.2843 38.7073 35.183 39.2202C34.0816 39.7332 32.8814 39.9992 31.6665 39.9994H24.9998C24.5578 39.9994 24.1339 39.8238 23.8213 39.5113C23.5087 39.1987 23.3331 38.7748 23.3331 38.3328V34.5611C22.2451 34.848 21.125 34.9953 19.9998 34.9994C18.874 34.9937 17.7536 34.8424 16.6665 34.5494V38.3328C16.6665 38.7748 16.4909 39.1987 16.1783 39.5113C15.8658 39.8238 15.4418 39.9994 14.9998 39.9994H8.33316C7.11821 39.9992 5.91801 39.7332 4.81667 39.2202C3.71532 38.7073 2.73946 37.9597 1.95746 37.0299C1.17546 36.1 0.606228 35.0104 0.289658 33.8375C-0.026912 32.6645 -0.083168 31.4365 0.124832 30.2394L0.624831 27.3394C0.791095 26.3749 1.24249 25.4823 1.9208 24.7768C2.59912 24.0712 3.47325 23.585 4.43047 23.3809C5.38769 23.1768 6.38411 23.2641 7.29123 23.6316C8.19836 23.9991 8.97459 24.63 9.51983 25.4428C11.6265 28.5394 15.6815 31.6661 19.9998 31.6661C25.2165 31.6661 30.3565 27.0344 31.8831 22.7061C32.0057 22.3808 32.2241 22.1003 32.5095 21.9018C32.7949 21.7033 33.1338 21.5961 33.4815 21.5944L34.2015 21.6061C34.5242 21.6101 34.8445 21.5499 35.1437 21.429C35.4429 21.3081 35.7151 21.1289 35.9445 20.9019C36.1739 20.6748 36.3558 20.4044 36.4797 20.1065C36.6037 19.8085 36.6672 19.4888 36.6665 19.1661C36.6659 18.5816 36.4605 18.0157 36.086 17.5669C35.7114 17.118 35.1915 16.8147 34.6165 16.7094C34.2619 16.6451 33.9377 16.4676 33.6925 16.2035C33.4473 15.9393 33.2943 15.6028 33.2565 15.2444C32.9139 11.9699 31.3685 8.93899 28.9196 6.73847C26.4706 4.53795 23.2922 3.3244 19.9998 3.33278C10.7048 3.33278 8.15316 9.37944 6.10316 14.2394C5.72983 15.1178 5.37816 15.9561 4.99983 16.7111C8.35114 16.5339 11.619 15.6011 14.5589 13.9825C17.4987 12.364 20.0345 10.1015 21.9765 7.36444C22.1036 7.18628 22.2647 7.03491 22.4503 6.91898C22.636 6.80304 22.8427 6.72481 23.0586 6.68875C23.2745 6.65269 23.4953 6.65951 23.7086 6.70882C23.9219 6.75812 24.1233 6.84895 24.3015 6.97611C24.4796 7.10327 24.631 7.26428 24.7469 7.44995C24.8629 7.63561 24.9411 7.84229 24.9772 8.05818C25.0132 8.27408 25.0064 8.49497 24.9571 8.70823C24.9078 8.92149 24.817 9.12295 24.6898 9.30111C22.5265 12.368 19.7042 14.9119 16.4298 16.7461C16.9289 16.8687 17.3782 17.1421 17.7163 17.5291C18.0545 17.9161 18.2652 18.3979 18.3196 18.909C18.3741 19.4201 18.2698 19.9355 18.0208 20.3851C17.7718 20.8347 17.3903 21.1967 16.9282 21.4217C16.4662 21.6467 15.946 21.7238 15.4385 21.6426C14.931 21.5613 14.4609 21.3256 14.0922 20.9676C13.7234 20.6096 13.474 20.1466 13.3779 19.6417C13.2817 19.1368 13.3435 18.6146 13.5548 18.1461C9.72285 19.6978 5.5795 20.3258 1.45983 19.9794C1.11645 19.9334 0.795947 19.7815 0.542893 19.5449C0.28984 19.3083 0.116815 18.9987 0.047884 18.6592C-0.0210474 18.3196 0.0175404 17.9671 0.158281 17.6505C0.299021 17.3339 0.534918 17.0691 0.833164 16.8928C1.84072 15.7496 2.59047 14.403 3.0315 12.9444C5.20649 7.78944 8.49983 -0.000556043 19.9998 -0.000556043C23.9238 -0.00985183 27.7244 1.36952 30.729 3.89338C33.7336 6.41724 35.7483 9.92279 36.4165 13.7894C37.4771 14.2328 38.383 14.9797 39.0206 15.9363C39.6581 16.8929 39.9988 18.0165 39.9998 19.1661C39.997 20.5511 39.4912 21.8878 38.5765 22.9278C38.5881 22.9711 38.6181 23.0061 38.6265 23.0528L39.8748 30.2394ZM13.3332 33.2328C10.6969 31.8201 8.44295 29.7886 6.76483 27.3128C6.62202 27.0969 6.42826 26.9195 6.20067 26.7963C5.97308 26.6731 5.71864 26.6077 5.45983 26.6061H5.43149C5.0666 26.6138 4.7157 26.748 4.43876 26.9857C4.16182 27.2234 3.97604 27.5499 3.91316 27.9094L3.41316 30.8078C3.28805 31.5257 3.32141 32.2624 3.51089 32.9661C3.70037 33.6698 4.0414 34.3236 4.51009 34.8817C4.97878 35.4398 5.56381 35.8886 6.2242 36.1969C6.88459 36.5051 7.60438 36.6653 8.33316 36.6661H13.3332V33.2328ZM36.5915 30.8078L35.5448 24.7861C35.2279 24.8617 34.905 24.9096 34.5798 24.9294C32.8983 28.4776 30.1252 31.3943 26.6665 33.2528V36.6661H31.6665C32.3955 36.666 33.1157 36.5064 33.7766 36.1986C34.4374 35.8907 35.023 35.4421 35.4922 34.8841C35.9614 34.3262 36.3029 33.6723 36.4928 32.9685C36.6827 32.2646 36.7164 31.5277 36.5915 30.8094V30.8078Z" fill="white"/>
</svg>
