<svg width="40" height="38" viewBox="0 0 40 38" fill="none" xmlns="http://www.w3.org/2000/svg">
<path d="M36.7619 7.7174L24.4719 1.8624C21.7666 0.246464 18.3994 0.217792 15.6669 1.7874L3.23864 7.7174C3.192 7.74076 3.14364 7.76576 3.09864 7.7924C0.149266 9.47881 -0.874641 13.2369 0.811765 16.1862C1.38341 17.1861 2.22427 18.0053 3.23864 18.5508L6.667 20.1841V28.3508C6.66903 32.0026 9.0452 35.2288 12.532 36.3141C14.9585 37.0161 17.4745 37.3597 20.0004 37.3341C22.5258 37.3624 25.0418 37.0216 27.4687 36.3225C30.9555 35.2372 33.3317 32.0109 33.3337 28.3591V20.1808L36.6671 18.5874V32.334C36.6671 33.2545 37.4132 34.0007 38.3337 34.0007C39.2542 34.0007 40.0004 33.2545 40.0004 32.334V12.334C40.0115 10.3769 38.4661 8.56896 36.7619 7.7174ZM30.0003 28.3591C30.0011 30.5434 28.584 32.4755 26.5003 33.1308C24.3873 33.7345 22.1977 34.0276 20.0003 34.0008C17.8029 34.0276 15.6133 33.7345 13.5003 33.1308C11.4166 32.4755 9.99942 30.5434 10.0003 28.3591V21.7725L15.5286 24.4058C16.8927 25.2158 18.4506 25.6415 20.037 25.6375C21.547 25.6482 23.0316 25.2484 24.332 24.4808L30.0003 21.7724V28.3591ZM35.3336 15.5424L22.7636 21.5424C21.011 22.5629 18.8386 22.534 17.1136 21.4674L4.81528 15.6174C3.44442 14.8782 2.93239 13.1676 3.67161 11.7969C3.92161 11.3333 4.29645 10.949 4.75364 10.6874L17.2453 4.72076C18.9985 3.70248 21.1697 3.73131 22.8953 4.79576L35.1853 10.6508C36.0891 11.1526 36.6546 12.1004 36.6669 13.1341C36.6686 14.1133 36.1643 15.024 35.3336 15.5424Z" fill="white"/>
</svg>
